<svg width="81" height="81" viewBox="0 0 81 81" fill="none" xmlns="http://www.w3.org/2000/svg">
<g clip-path="url(#clip0_447_345)">
<mask id="mask0_447_345" style="mask-type:luminance" maskUnits="userSpaceOnUse" x="0" y="0" width="81" height="81">
<path d="M81 0H0V81H81V0Z" fill="white"/>
</mask>
<g mask="url(#mask0_447_345)">
<mask id="mask1_447_345" style="mask-type:luminance" maskUnits="userSpaceOnUse" x="0" y="0" width="81" height="81">
<path d="M81 0H0V81H81V0Z" fill="white"/>
</mask>
<g mask="url(#mask1_447_345)">
<path d="M80.8801 40.503C80.8801 62.8032 62.8032 80.8801 40.503 80.8801C18.2027 80.8801 0.120117 62.8032 0.120117 40.503C0.120117 18.2027 18.197 0.120117 40.503 0.120117C62.809 0.120117 80.8801 18.197 80.8801 40.4972" fill="#3453FB"/>
<path d="M57.3225 23.1692V26.5925H51.253V35.851H57.3225V39.28H41.5774V35.851H47.6125V26.5925H41.5774V23.1692H57.3225Z" fill="white"/>
<path d="M49.5842 63.4833C46.4009 63.4833 43.7605 62.4431 41.663 60.3628C39.5427 58.2425 38.4797 55.6422 38.4797 52.5674C38.4797 49.4927 39.537 46.8809 41.663 44.8006C43.7605 42.7032 46.4009 41.6516 49.5842 41.6516C52.276 41.6516 54.6077 42.4289 56.5851 43.9777C58.5626 45.5264 59.837 47.5382 60.4085 50.0014H56.5223C56.0308 48.5326 55.1621 47.361 53.9105 46.4866C52.6589 45.6122 51.213 45.1721 49.5842 45.1721C47.5039 45.1721 45.7608 45.8865 44.3549 47.3153C42.9489 48.7212 42.246 50.4757 42.246 52.5732C42.246 54.6706 42.9489 56.4366 44.3549 57.8653C45.7608 59.2712 47.5039 59.9742 49.5842 59.9742C51.213 59.9742 52.6589 59.5341 53.9105 58.6597C55.1621 57.7853 56.0365 56.6137 56.5223 55.1449H60.4085C59.837 57.6139 58.5626 59.6199 56.5851 61.1687C54.6077 62.7174 52.276 63.4947 49.5842 63.4947" fill="white"/>
<path d="M20.5917 39.2799V36.7138C20.5917 35.2279 20.8374 33.9877 21.3232 32.999C21.8147 32.0103 22.5234 31.193 23.4492 30.5529C24.375 29.9129 25.5123 29.3871 26.8611 28.9756L28.9071 28.3355C29.6615 28.0897 30.2959 27.7926 30.8045 27.4325C31.3132 27.0782 31.7075 26.6438 31.9818 26.1352C32.2562 25.6265 32.3933 25.0436 32.3933 24.3921V24.2721C32.3933 23.2548 32.0447 22.4432 31.3532 21.8431C30.6616 21.2431 29.7129 20.9402 28.5071 20.9402C27.3012 20.9402 26.3696 21.2602 25.6495 21.9003C24.9237 22.5404 24.5636 23.4662 24.5636 24.6664V25.2151H20.6488V24.7236C20.6488 23.1748 20.9974 21.8603 21.689 20.7801C22.3805 19.7 23.3235 18.877 24.5179 18.3055C25.7124 17.734 27.0383 17.4482 28.5071 17.4482C29.9758 17.4482 31.3017 17.7283 32.4848 18.2884C33.6678 18.8484 34.5993 19.6314 35.2852 20.643C35.9653 21.6545 36.3082 22.8433 36.3082 24.2035V24.5121C36.3082 25.878 36.0281 27.0325 35.468 27.9812C34.908 28.9299 34.1479 29.7014 33.1877 30.3072C32.2276 30.9073 31.1417 31.4045 29.913 31.7931L27.9584 32.4046C27.084 32.6675 26.3982 32.959 25.9067 33.2733C25.4152 33.5877 25.078 33.9363 24.8837 34.3135C24.6894 34.6907 24.5922 35.1422 24.5922 35.6737V35.7937H36.1196V39.2799H20.5859H20.5917Z" fill="white"/>
<path d="M20.5917 63.1119V60.5458C20.5917 59.0599 20.8374 57.8197 21.3232 56.831C21.8147 55.8423 22.5234 55.0251 23.4492 54.385C24.375 53.7449 25.5123 53.2191 26.8611 52.8076L28.9071 52.1675C29.6615 51.9218 30.2959 51.6246 30.8045 51.2645C31.3132 50.9102 31.7075 50.4759 31.9818 49.9672C32.2562 49.4586 32.3933 48.8756 32.3933 48.2241V48.1041C32.3933 47.0868 32.0447 46.2753 31.3532 45.6752C30.6616 45.0751 29.7129 44.7722 28.5071 44.7722C27.3012 44.7722 26.3696 45.0922 25.6495 45.7323C24.9237 46.3724 24.5636 47.2983 24.5636 48.4984V49.0471H20.6488V48.5556C20.6488 47.0068 20.9974 45.6923 21.689 44.6122C22.3805 43.532 23.3235 42.709 24.5179 42.1375C25.7124 41.566 27.0383 41.2803 28.5071 41.2803C29.9758 41.2803 31.3017 41.5603 32.4848 42.1204C33.6678 42.6805 34.5993 43.4634 35.2852 44.475C35.9653 45.4866 36.3082 46.6696 36.3082 48.0355V48.3384C36.3082 49.7043 36.0281 50.8588 35.468 51.8075C34.908 52.7562 34.1479 53.5277 33.1877 54.1335C32.2276 54.7336 31.1417 55.2308 29.913 55.6194L27.9584 56.231C27.084 56.4938 26.3982 56.7853 25.9067 57.1054C25.4152 57.4197 25.078 57.7683 24.8837 58.1455C24.6894 58.5227 24.5922 58.9742 24.5922 59.5057V59.6257H36.1196V63.1119H20.5859H20.5917Z" fill="white"/>
<path d="M52.3848 17.5398L47.4812 21.6261V17.3455L52.3848 13.2649V17.5398Z" fill="white"/>
</g>
</g>
</g>
<defs>
<clipPath id="clip0_447_345">
<rect width="81" height="81" fill="white"/>
</clipPath>
</defs>
</svg>
