<?xml version="1.0" encoding="UTF-8" standalone="no"?>
<svg
   xmlns:dc="http://purl.org/dc/elements/1.1/"
   xmlns:cc="http://creativecommons.org/ns#"
   xmlns:rdf="http://www.w3.org/1999/02/22-rdf-syntax-ns#"
   xmlns:svg="http://www.w3.org/2000/svg"
   xmlns="http://www.w3.org/2000/svg"
   xmlns:sodipodi="http://sodipodi.sourceforge.net/DTD/sodipodi-0.dtd"
   xmlns:inkscape="http://www.inkscape.org/namespaces/inkscape"
   viewBox="0 0 598.23322 429.72965"
   version="1.1"
   id="svg180"
   sodipodi:docname="ProjectPythia_Logo_Final-02-White-NoText.svg"
   inkscape:version="1.0.2 (e86c8708, 2021-01-15)"
   width="598.23322"
   height="429.72968">
  <metadata
     id="metadata184">
    <rdf:RDF>
      <cc:Work
         rdf:about="">
        <dc:format>image/svg+xml</dc:format>
        <dc:type
           rdf:resource="http://purl.org/dc/dcmitype/StillImage" />
        <dc:title></dc:title>
      </cc:Work>
    </rdf:RDF>
  </metadata>
  <sodipodi:namedview
     pagecolor="#000000"
     bordercolor="#666666"
     borderopacity="1"
     objecttolerance="10"
     gridtolerance="10"
     guidetolerance="10"
     inkscape:pageopacity="0"
     inkscape:pageshadow="2"
     inkscape:window-width="1298"
     inkscape:window-height="714"
     id="namedview182"
     showgrid="false"
     inkscape:zoom="0.83629114"
     inkscape:cx="340.95905"
     inkscape:cy="260.61229"
     inkscape:window-x="142"
     inkscape:window-y="45"
     inkscape:window-maximized="0"
     inkscape:current-layer="svg180"
     inkscape:document-rotation="0"
     fit-margin-top="5"
     fit-margin-left="5"
     fit-margin-right="5"
     fit-margin-bottom="5"
     inkscape:pagecheckerboard="true" />
  <defs
     id="defs118">
    <style
       id="style116">.cls-1{fill:#fff;}</style>
  </defs>
  <g
     id="art"
     transform="translate(-8.0778504,-11.259408)">
    <path
       class="cls-1"
       d="m 561.73,113.01 c -0.913,-1.428 -1.734,-2.243 -1.578,-2.537 6.512,-12.268 25.871,-23.228 18.571,-35.561 -6.194,-10.464 -26.6,-3.547 -40.658,-3.666 -54.562,-0.462 -109.13,-0.221 -163.7,-0.155 -9.413,0.011 -18.251,-1 -25.991,8.123 -67.893,80.061 -157.4,130.353 -248.245,178.613 a 580.864,580.864 0 0 1 -54.221,25.8 c -14.445,5.849 -11.841,10.758 0.4,17.236 -10.737,4.64 -23.454,7.044 -28.47,0.9 -11.495,-14.083 -0.137,-21.956 12.54,-28.387 75.979,-38.539 148.425,-82.757 214.905,-136.271 39.528,-31.819 76.493,-66.293 103.193,-110.059 5.657,-9.273 12.543,-10.68 21.871,-10.657 70.613,0.173 141.23,0.35 211.841,-0.128 13.1,-0.089 17.153,3.527 18.514,17.381 3.476,35.346 -7.717,61.708 -38.972,79.368 z"
       id="path120" />
    <path
       class="cls-1"
       d="m 452.84,255.861 c 0,38.47 -0.735,76.96 0.354,115.4 0.451,15.891 -6.13,18 -19.772,18.277 -14.662,0.3 -16.992,-5.818 -16.92,-18.476 q 0.648,-115.4 -0.008,-230.814 c -0.076,-12.886 3.169,-18.937 17.165,-19.007 14.062,-0.069 19.851,4.108 19.488,19.22 -0.925,38.446 -0.308,76.931 -0.307,115.4 z"
       id="path122" />
    <path
       class="cls-1"
       d="m 470.815,129.324 c 20.017,3.733 26.947,12.423 26.724,30.372 -0.9,73.034 -0.209,146.088 -0.667,219.131 -0.041,6.511 5.859,18.7 -7.422,18.507 -9.634,-0.141 -19.2,-2.91 -19.044,-18.34 0.866,-82.61 0.409,-165.234 0.409,-249.67 z"
       id="path124" />
    <path
       class="cls-1"
       d="m 398.468,128.743 c 0,85.51 -0.3,168.787 0.284,252.057 0.1,14.371 -9.878,16 -18.432,16.449 -11.245,0.6 -7.467,-10.2 -7.493,-16.274 -0.313,-74.506 0.315,-149.02 -0.588,-223.516 -0.215,-17.723 8.601,-23.906 26.229,-28.716 z"
       id="path126" />
    <path
       class="cls-1"
       d="m 435.151,435.514 c -22.373,-0.015 -44.747,0.075 -67.119,-0.09 -4.5,-0.033 -10.367,1.6 -12.614,-3.983 -2.564,-6.372 2.51,-10.343 6.563,-14.068 27.65,-25.413 118.04,-25.262 145.669,0.176 4.121,3.8 9.351,7.959 7.072,13.972 -2.579,6.8 -9.72,3.795 -14.851,3.872 -21.571,0.322 -43.146,0.136 -64.72,0.121 z"
       id="path128" />
    <path
       class="cls-1"
       d="m 433.521,84.538 c 28.3,-0.832 52.075,7.858 74.564,20.9 7.031,4.076 15.185,8.453 9.28,18.42 -4.925,8.309 -11.965,12.552 -22.065,6.442 -40.755,-24.66 -81.521,-24.69 -122.147,0.538 -8.869,5.507 -15.2,1.267 -20.289,-6.024 -6.9,-9.877 0.4,-14.765 7.488,-18.8 23.212,-13.209 47.508,-23.003 73.169,-21.476 z"
       id="path130" />
    <path
       class="cls-1"
       d="m 273.847,315.855 c 0,23.312 -0.049,46.625 0.027,69.937 0.03,9.122 0.917,17.642 -13.077,17.118 -12.133,-0.454 -12.047,-7.576 -12.038,-16.023 0.049,-49.84 0.212,-99.681 -0.136,-149.518 -0.07,-9.913 2.8,-15 13.354,-14.966 11.854,0.037 11.983,7.665 11.928,16.281 -0.165,25.723 -0.059,51.447 -0.058,77.171 z"
       id="path132" />
    <path
       class="cls-1"
       d="m 234.652,316.252 c 0.005,24.814 -0.2,49.631 0.115,74.442 0.116,9.048 -1.567,17.152 -12.107,16.442 -9.623,-0.648 -6.019,-9.854 -6.056,-15.4 -0.315,-46.425 -0.232,-92.854 -0.11,-139.281 0.012,-4.7 -0.2,-10.138 2,-13.874 2.136,-3.626 7.184,-7.579 11.058,-7.69 6.941,-0.2 4.941,6.731 4.979,10.919 0.231,24.812 0.116,49.627 0.121,74.442 z"
       id="path134" />
    <path
       class="cls-1"
       d="m 287.943,230.523 c 15.193,0.27 18.931,7.976 18.862,20.162 -0.27,47.956 0,95.915 -0.293,143.871 -0.028,4.589 3.311,12.642 -5.857,12.622 -8.126,-0.018 -12.858,-4.373 -12.821,-13.623 0.221,-54.196 0.109,-108.393 0.109,-163.032 z"
       id="path136" />
    <path
       class="cls-1"
       d="m 260.649,435.414 c -15.264,0 -30.529,0.075 -45.793,-0.053 -3.859,-0.032 -8.906,0.254 -8.809,-5.31 0.046,-2.641 2.48,-5.723 4.628,-7.768 16.918,-16.1 83.735,-16.218 101.457,-0.426 3.055,2.722 6.419,5.453 4.744,9.91 -1.811,4.819 -6.647,3.627 -10.432,3.666 -15.263,0.157 -30.529,0.065 -45.794,0.065 z"
       id="path138" />
    <path
       class="cls-1"
       d="m 103.741,349.523 c 0.01,-16.834 -0.073,-33.669 0.056,-50.5 0.044,-5.752 0.482,-11.433 8.73,-11.155 7.841,0.264 8.8,5.524 8.809,11.5 q 0.056,50.5 0.02,101.005 c 0,6.346 -1.758,10.94 -9.27,11.116 -8.5,0.2 -8.243,-5.925 -8.3,-11.464 -0.158,-16.834 -0.055,-33.668 -0.045,-50.502 z"
       id="path140" />
    <path
       class="cls-1"
       d="m 261.218,196.157 a 95.5,95.5 0 0 1 50.309,13.709 c 5.364,3.233 12.636,6.193 8.44,14.416 -3.633,7.12 -10.081,7.1 -16.417,3.281 -28.011,-16.894 -56.011,-17.032 -83.99,-0.065 -6.543,3.968 -12.4,3.87 -16.436,-3.024 -5.032,-8.595 2.831,-11.078 7.883,-14.328 15.256,-9.813 32.233,-13.746 50.211,-13.989 z"
       id="path142" />
    <path
       class="cls-1"
       d="m 94.04,293.264 c 0,37.331 0.011,73.28 -0.013,109.229 0,4.7 0.844,10.4 -5.811,11.112 -9.686,1.042 -6.927,-6.943 -6.97,-11.6 -0.292,-31.205 -0.093,-62.414 -0.167,-93.622 -0.016,-6.824 0.98,-12.683 12.961,-15.119 z"
       id="path144" />
    <path
       class="cls-1"
       d="m 111.568,268.8 c 12.9,0.128 25.16,2.829 36.348,9.529 3.6,2.154 6.485,5.1 4.405,9.582 -2.161,4.658 -6.126,4.148 -9.943,2.083 -20.571,-11.131 -40.985,-10.1 -61.4,0.49 -4.207,2.182 -7.674,0.906 -9.424,-3.59 -1.469,-3.774 1.357,-6.231 3.864,-7.718 C 86.511,272.6 98.457,268.6 111.568,268.8 Z"
       id="path146" />
    <path
       class="cls-1"
       d="m 130.819,293.264 c 0,37.331 -0.01,73.28 0.014,109.229 0,4.7 -0.844,10.4 5.811,11.112 9.686,1.042 6.926,-6.943 6.97,-11.6 0.291,-31.205 0.093,-62.414 0.166,-93.622 0.02,-6.824 -0.98,-12.683 -12.961,-15.119 z"
       id="path148" />
    <path
       class="cls-1"
       d="m 111.771,435.447 c -11.16,0 -22.322,0.055 -33.482,-0.039 -2.822,-0.023 -6.512,0.186 -6.441,-3.882 0.033,-1.931 1.813,-4.185 3.384,-5.68 12.37,-11.772 61.224,-11.858 74.182,-0.312 2.233,1.991 4.693,3.988 3.469,7.247 -1.325,3.523 -4.861,2.652 -7.628,2.68 -11.16,0.115 -22.322,0.048 -33.483,0.048 z"
       id="path150" />
  </g>
</svg>
