<svg xmlns="http://www.w3.org/2000/svg" viewBox="0 0 610.923 63.633"><defs><style>.cls-1{fill:#1a3b68;}</style></defs><title>NCAR-contemp-logo-blue.a</title><g id="Isolation_Mode" data-name="Isolation Mode"><rect class="cls-1" x="235.551" width="2.364" height="63.633"/><path class="cls-1" d="M334.9,36.348V56.266h-3.989l-9.034-13.65v13.65h-3.99V36.348h3.99l9.034,13.678V36.348Z" transform="translate(-59.99 -29.394)"/><path class="cls-1" d="M351.033,52.475h-7.921L341.8,56.266h-4.189l7.152-19.918h4.645l7.153,19.918h-4.218Zm-3.961-11.512-2.878,8.322h5.757Z" transform="translate(-59.99 -29.394)"/><path class="cls-1" d="M358.19,36.375h14.59V39.6h-5.3v16.67H363.49V39.6h-5.3Z" transform="translate(-59.99 -29.394)"/><path class="cls-1" d="M375.691,36.375h3.989V56.266h-3.989Z" transform="translate(-59.99 -29.394)"/><path class="cls-1" d="M392.848,56.465a10.187,10.187,0,1,1,10.172-10.2A10,10,0,0,1,392.848,56.465Zm0-3.563c3.59,0,6.069-2.592,6.069-6.639s-2.479-6.582-6.069-6.582c-3.62,0-6.1,2.537-6.1,6.582S389.228,52.9,392.848,52.9Z" transform="translate(-59.99 -29.394)"/><path class="cls-1" d="M423,36.348V56.266h-3.989l-9.033-13.65v13.65h-3.99V36.348h3.99l9.033,13.678V36.348Z" transform="translate(-59.99 -29.394)"/><path class="cls-1" d="M439.135,52.475h-7.923L429.9,56.266h-4.187l7.152-19.918h4.644l7.152,19.918h-4.215Zm-3.962-11.512L432.3,49.285h5.755Z" transform="translate(-59.99 -29.394)"/><path class="cls-1" d="M451.335,36.375V53.1h6.554v3.163H447.344V36.375Z" transform="translate(-59.99 -29.394)"/><path class="cls-1" d="M476.33,36.119a9.373,9.373,0,0,1,9.345,6.441h-4.587a5.015,5.015,0,0,0-4.786-2.851c-3.476,0-5.956,2.537-5.956,6.584,0,4.017,2.48,6.582,5.956,6.582A4.992,4.992,0,0,0,481.088,50h4.587c-1.339,4.1-4.929,6.441-9.345,6.441a9.805,9.805,0,0,1-10.088-10.144A9.83,9.83,0,0,1,476.33,36.119Z" transform="translate(-59.99 -29.394)"/><path class="cls-1" d="M500.641,39.6H493.09v4.986h6.7v3.163h-6.7v5.273h7.551v3.248H489.1V36.348h11.54Z" transform="translate(-59.99 -29.394)"/><path class="cls-1" d="M521.277,36.348V56.266h-3.989l-9.035-13.65v13.65h-3.99V36.348h3.99l9.035,13.678V36.348Z" transform="translate(-59.99 -29.394)"/><path class="cls-1" d="M524.159,36.375h14.59V39.6h-5.3v16.67h-3.989V39.6h-5.3Z" transform="translate(-59.99 -29.394)"/><path class="cls-1" d="M553.2,39.6h-7.551v4.986h6.7v3.163h-6.7v5.273H553.2v3.248H541.657V36.348H553.2Z" transform="translate(-59.99 -29.394)"/><path class="cls-1" d="M564.29,36.375c4.786,0,7.18,2.764,7.18,6.1a5.744,5.744,0,0,1-4.532,5.727l4.758,8.064h-4.615l-4.388-7.752h-1.879v7.752h-3.992V36.375Zm-.143,3.306h-3.333v5.841h3.333c2.221,0,3.218-1.168,3.218-2.962C567.365,40.792,566.368,39.681,564.147,39.681Z" transform="translate(-59.99 -29.394)"/><path class="cls-1" d="M581.877,36.375h12.281V39.6h-8.292v5.1h6.353v3.165h-6.353v8.405h-3.989Z" transform="translate(-59.99 -29.394)"/><path class="cls-1" d="M606.214,56.465a10.187,10.187,0,1,1,10.176-10.2A10,10,0,0,1,606.214,56.465Zm0-3.563c3.592,0,6.071-2.592,6.071-6.639s-2.479-6.582-6.071-6.582c-3.618,0-6.1,2.537-6.1,6.582S602.6,52.9,606.214,52.9Z" transform="translate(-59.99 -29.394)"/><path class="cls-1" d="M626.824,36.375c4.786,0,7.18,2.764,7.18,6.1a5.744,5.744,0,0,1-4.532,5.727l4.758,8.064h-4.615l-4.388-7.752h-1.879v7.752h-3.992V36.375Zm-.143,3.306h-3.333v5.841h3.333c2.221,0,3.218-1.168,3.218-2.962C629.9,40.792,628.9,39.681,626.681,39.681Z" transform="translate(-59.99 -29.394)"/><path class="cls-1" d="M330.084,85.566h-7.921l-1.312,3.791h-4.189l7.152-19.918h4.646l7.152,19.918H331.4Zm-3.961-11.513-2.878,8.323H329Z" transform="translate(-59.99 -29.394)"/><path class="cls-1" d="M337.241,69.466h14.59v3.221h-5.3v16.67h-3.99V72.687h-5.3Z" transform="translate(-59.99 -29.394)"/><path class="cls-1" d="M354.741,69.466h4.532L365.6,84.255l6.327-14.789h4.5V89.357h-3.99V76.42l-5.328,12.937h-3.021L358.731,76.42V89.357h-3.99Z" transform="translate(-59.99 -29.394)"/><path class="cls-1" d="M389.6,89.555a10.187,10.187,0,1,1,10.173-10.2A9.995,9.995,0,0,1,389.6,89.555Zm0-3.562c3.592,0,6.071-2.592,6.071-6.639s-2.479-6.582-6.071-6.582c-3.62,0-6.1,2.537-6.1,6.582S385.978,85.993,389.6,85.993Z" transform="translate(-59.99 -29.394)"/><path class="cls-1" d="M409.606,89.555c-4.132,0-7.325-2.165-7.381-5.926H406.5a2.73,2.73,0,0,0,3.019,2.65c1.88,0,2.992-1,2.992-2.421,0-4.3-10.259-1.711-10.231-8.92,0-3.59,2.909-5.756,7.013-5.756,4.073,0,6.866,2.08,7.122,5.67h-4.388a2.628,2.628,0,0,0-2.849-2.366c-1.568-.056-2.736.713-2.736,2.338,0,3.99,10.2,1.766,10.2,8.778C416.645,86.734,414.138,89.555,409.606,89.555Z" transform="translate(-59.99 -29.394)"/><path class="cls-1" d="M427.421,81.72h-3.334v7.637H420.1V69.466h7.325c4.788,0,7.18,2.708,7.18,6.155C434.6,78.643,432.551,81.72,427.421,81.72Zm-.171-3.22c2.249,0,3.246-1.111,3.246-2.879,0-1.824-1-2.907-3.246-2.907h-3.163V78.5Z" transform="translate(-59.99 -29.394)"/><path class="cls-1" d="M449.936,80.894h-8.521v8.463h-3.989V69.466h3.989v8.179h8.521V69.466h3.989V89.357h-3.989Z" transform="translate(-59.99 -29.394)"/><path class="cls-1" d="M469.4,72.687h-7.553v4.986h6.7v3.163h-6.7v5.273H469.4v3.248H457.862V69.439H469.4Z" transform="translate(-59.99 -29.394)"/><path class="cls-1" d="M480.492,69.466c4.786,0,7.182,2.764,7.182,6.1a5.747,5.747,0,0,1-4.532,5.728l4.758,8.064h-4.617L478.9,81.605h-1.881v7.752h-3.992V69.466Zm-.143,3.306h-3.333v5.841h3.333c2.223,0,3.221-1.168,3.221-2.962C483.57,73.883,482.572,72.772,480.349,72.772Z" transform="translate(-59.99 -29.394)"/><path class="cls-1" d="M491.294,69.466h3.991V89.357h-3.991Z" transform="translate(-59.99 -29.394)"/><path class="cls-1" d="M508.338,69.21a9.374,9.374,0,0,1,9.347,6.441H513.1A5.012,5.012,0,0,0,508.31,72.8c-3.476,0-5.956,2.537-5.956,6.584,0,4.017,2.48,6.581,5.956,6.581a4.988,4.988,0,0,0,4.786-2.878h4.589c-1.339,4.1-4.931,6.441-9.347,6.441a10.159,10.159,0,0,1,0-20.318Z" transform="translate(-59.99 -29.394)"/><path class="cls-1" d="M535.36,69.466c4.788,0,7.179,2.764,7.179,6.1a5.745,5.745,0,0,1-4.529,5.728l4.758,8.064h-4.615l-4.391-7.752h-1.879v7.752h-3.989V69.466Zm-.144,3.306h-3.333v5.841h3.333c2.224,0,3.221-1.168,3.221-2.962C538.437,73.883,537.44,72.772,535.216,72.772Z" transform="translate(-59.99 -29.394)"/><path class="cls-1" d="M557.7,72.687h-7.551v4.986h6.695v3.163h-6.695v5.273H557.7v3.248h-11.54V69.439H557.7Z" transform="translate(-59.99 -29.394)"/><path class="cls-1" d="M568.192,89.555c-4.132,0-7.323-2.165-7.378-5.926h4.273a2.731,2.731,0,0,0,3.022,2.65c1.879,0,2.992-1,2.992-2.421,0-4.3-10.26-1.711-10.232-8.92,0-3.59,2.909-5.756,7.011-5.756,4.075,0,6.868,2.08,7.122,5.67h-4.386a2.628,2.628,0,0,0-2.849-2.366c-1.57-.056-2.738.713-2.738,2.338,0,3.99,10.2,1.766,10.2,8.778C575.233,86.734,572.723,89.555,568.192,89.555Z" transform="translate(-59.99 -29.394)"/><path class="cls-1" d="M590.225,72.687h-7.552v4.986h6.7v3.163h-6.7v5.273h7.552v3.248H578.682V69.439h11.543Z" transform="translate(-59.99 -29.394)"/><path class="cls-1" d="M606.043,85.566h-7.921l-1.311,3.791h-4.19l7.152-19.918h4.647l7.152,19.918h-4.218Zm-3.962-11.513-2.876,8.323h5.757Z" transform="translate(-59.99 -29.394)"/><path class="cls-1" d="M621.722,69.466c4.786,0,7.18,2.764,7.18,6.1a5.745,5.745,0,0,1-4.532,5.728l4.758,8.064h-4.614l-4.389-7.752h-1.879v7.752h-3.992V69.466Zm-.143,3.306h-3.333v5.841h3.333c2.221,0,3.218-1.168,3.218-2.962C624.8,73.883,623.8,72.772,621.579,72.772Z" transform="translate(-59.99 -29.394)"/><path class="cls-1" d="M641.643,69.21a9.374,9.374,0,0,1,9.347,6.441H646.4a5.012,5.012,0,0,0-4.786-2.851c-3.476,0-5.956,2.537-5.956,6.584,0,4.017,2.48,6.581,5.956,6.581a4.988,4.988,0,0,0,4.786-2.878h4.589c-1.339,4.1-4.931,6.441-9.347,6.441a10.159,10.159,0,0,1,0-20.318Z" transform="translate(-59.99 -29.394)"/><path class="cls-1" d="M666.924,80.894h-8.519v8.463h-3.991V69.466h3.991v8.179h8.519V69.466h3.989V89.357h-3.989Z" transform="translate(-59.99 -29.394)"/><path class="cls-1" d="M147.084,40.738c-12.465.045-20.148,5.709-20.1,20.16.055,15.007,9.456,24.264,24.46,24.21a30.757,30.757,0,0,0,16.5-4.9l.029,7.94c-5.071,2.877-11.9,3.931-17.373,3.953-17.548.061-31.956-10.049-32.029-31.171-.069-19.054,12.207-27.2,27.294-27.25,7.624-.028,15.094,1.532,22.006,3.336l.031,8.494c-4.139-2.922-13.912-4.792-20.82-4.769" transform="translate(-59.99 -29.394)"/><path class="cls-1" d="M220.011,90.025c-.193-.953-.1-1.906-2.5-7.059-1.73-3.884-3.553-7.345-5.281-11.231l-24.389.087c-1.7,3.976-3.4,7.451-5.2,11.347a37.37,37.37,0,0,0-2.262,7l-10.442.038s1.234-1.114,3.974-7.477c2.078-4.851,15.973-36.025,18.051-40.875,2.362-5.329,2.454-6.52,2.454-6.52l11.359-.04s.1,1.427,2.309,6.422c2.114,4.837,15.848,35.673,18.056,40.59,3.168,6.895,4.444,7.685,4.444,7.685ZM199.745,43.49c-3.118,7.236-6.12,14.259-9.335,21.5l19.531-.071c-3.359-7.212-6.837-14.214-10.2-21.427" transform="translate(-59.99 -29.394)"/><path class="cls-1" d="M269.266,89.85c-1.34-1.345-2.773-2.69-4.205-4.035L242.123,65.65l.064,17.706c.009,2.539.21,5.636.69,6.589l-9.349.035c.567-1.352.56-3.577.548-6.593L233.927,41.7a45.285,45.285,0,0,0-.5-6.508c7.147-.028,13.347-1,20.3-1.028,10.669-.038,18.687,3.745,18.72,13.432.036,9.844-7.375,15.746-19.947,17.3,7.168,6.087,14.335,12.335,21.5,18.5a64.72,64.72,0,0,0,8.122,6.4Zm-17.992-49.8c-3.05.009-6,.418-9.238.747l.063,17.654c2.005.151,3.814.3,5.816.3,8.382-.031,15.517-1.671,15.488-9.851-.023-6.749-4.7-8.874-12.129-8.848" transform="translate(-59.99 -29.394)"/><path class="cls-1" d="M100.761,90.209s-1.349-2.3-4.442-6.664c-9.28-12.692-18.481-25.54-27.681-38.313V83.386c0,5.712.394,6.823.394,6.823H59.99a30.42,30.42,0,0,0,.475-6.9v-39.9a52.934,52.934,0,0,0-.394-7.931H71.81s.475,1.35,4.522,6.981c3.329,4.6,24.193,33.551,27.521,38.154V43.09a43.015,43.015,0,0,0-.394-7.614H112.5a39.434,39.434,0,0,0-.477,7.614V82.2c0,7.217.316,7.217.477,8.012Z" transform="translate(-59.99 -29.394)"/></g></svg>
