<svg xmlns="http://www.w3.org/2000/svg" viewBox="0 0 612 547.056"><defs><style>.cls-1{fill:#1a658f;}.cls-2{fill:#1a658f;}</style></defs><g id="art"><path class="cls-1" d="M561.73,113.01c-.913-1.428-1.734-2.243-1.578-2.537,6.512-12.268,25.871-23.228,18.571-35.561-6.194-10.464-26.6-3.547-40.658-3.666-54.562-.462-109.13-.221-163.7-.155-9.413.011-18.251-1-25.991,8.123-67.893,80.061-157.4,130.353-248.245,178.613a580.864,580.864,0,0,1-54.221,25.8c-14.445,5.849-11.841,10.758.4,17.236-10.737,4.64-23.454,7.044-28.47.9-11.495-14.083-.137-21.956,12.54-28.387,75.979-38.539,148.425-82.757,214.905-136.271,39.528-31.819,76.493-66.293,103.193-110.059,5.657-9.273,12.543-10.68,21.871-10.657,70.613.173,141.23.35,211.841-.128,13.1-.089,17.153,3.527,18.514,17.381C604.178,68.988,592.985,95.35,561.73,113.01Z"/><path class="cls-1" d="M452.84,255.861c0,38.47-.735,76.96.354,115.4.451,15.891-6.13,18-19.772,18.277-14.662.3-16.992-5.818-16.92-18.476q.648-115.4-.008-230.814c-.076-12.886,3.169-18.937,17.165-19.007,14.062-.069,19.851,4.108,19.488,19.22C452.222,178.907,452.839,217.392,452.84,255.861Z"/><path class="cls-1" d="M470.815,129.324c20.017,3.733,26.947,12.423,26.724,30.372-.9,73.034-.209,146.088-.667,219.131-.041,6.511,5.859,18.7-7.422,18.507-9.634-.141-19.2-2.91-19.044-18.34C471.272,296.384,470.815,213.76,470.815,129.324Z"/><path class="cls-1" d="M398.468,128.743c0,85.51-.3,168.787.284,252.057.1,14.371-9.878,16-18.432,16.449-11.245.6-7.467-10.2-7.493-16.274-.313-74.506.315-149.02-.588-223.516C372.024,139.736,380.84,133.553,398.468,128.743Z"/><path class="cls-1" d="M435.151,435.514c-22.373-.015-44.747.075-67.119-.09-4.5-.033-10.367,1.6-12.614-3.983-2.564-6.372,2.51-10.343,6.563-14.068,27.65-25.413,118.04-25.262,145.669.176,4.121,3.8,9.351,7.959,7.072,13.972-2.579,6.8-9.72,3.795-14.851,3.872C478.3,435.715,456.725,435.529,435.151,435.514Z"/><path class="cls-1" d="M433.521,84.538c28.3-.832,52.075,7.858,74.564,20.9,7.031,4.076,15.185,8.453,9.28,18.42C512.44,132.167,505.4,136.41,495.3,130.3c-40.755-24.66-81.521-24.69-122.147.538-8.869,5.507-15.2,1.267-20.289-6.024-6.9-9.877.4-14.765,7.488-18.8C383.564,92.805,407.86,83.011,433.521,84.538Z"/><path class="cls-1" d="M273.847,315.855c0,23.312-.049,46.625.027,69.937.03,9.122.917,17.642-13.077,17.118-12.133-.454-12.047-7.576-12.038-16.023.049-49.84.212-99.681-.136-149.518-.07-9.913,2.8-15,13.354-14.966,11.854.037,11.983,7.665,11.928,16.281C273.74,264.407,273.846,290.131,273.847,315.855Z"/><path class="cls-1" d="M234.652,316.252c.005,24.814-.2,49.631.115,74.442.116,9.048-1.567,17.152-12.107,16.442-9.623-.648-6.019-9.854-6.056-15.4-.315-46.425-.232-92.854-.11-139.281.012-4.7-.2-10.138,2-13.874,2.136-3.626,7.184-7.579,11.058-7.69,6.941-.2,4.941,6.731,4.979,10.919C234.762,266.622,234.647,291.437,234.652,316.252Z"/><path class="cls-1" d="M287.943,230.523c15.193.27,18.931,7.976,18.862,20.162-.27,47.956,0,95.915-.293,143.871-.028,4.589,3.311,12.642-5.857,12.622-8.126-.018-12.858-4.373-12.821-13.623C288.055,339.359,287.943,285.162,287.943,230.523Z"/><path class="cls-1" d="M260.649,435.414c-15.264,0-30.529.075-45.793-.053-3.859-.032-8.906.254-8.809-5.31.046-2.641,2.48-5.723,4.628-7.768,16.918-16.1,83.735-16.218,101.457-.426,3.055,2.722,6.419,5.453,4.744,9.91-1.811,4.819-6.647,3.627-10.432,3.666-15.263.157-30.529.065-45.794.065Z"/><path class="cls-1" d="M103.741,349.523c.01-16.834-.073-33.669.056-50.5.044-5.752.482-11.433,8.73-11.155,7.841.264,8.8,5.524,8.809,11.5q.056,50.5.02,101.005c0,6.346-1.758,10.94-9.27,11.116-8.5.2-8.243-5.925-8.3-11.464C103.628,383.191,103.731,366.357,103.741,349.523Z"/><path class="cls-1" d="M261.218,196.157a95.5,95.5,0,0,1,50.309,13.709c5.364,3.233,12.636,6.193,8.44,14.416-3.633,7.12-10.081,7.1-16.417,3.281-28.011-16.894-56.011-17.032-83.99-.065-6.543,3.968-12.4,3.87-16.436-3.024-5.032-8.595,2.831-11.078,7.883-14.328C226.263,200.333,243.24,196.4,261.218,196.157Z"/><path class="cls-1" d="M94.04,293.264c0,37.331.011,73.28-.013,109.229,0,4.7.844,10.4-5.811,11.112-9.686,1.042-6.927-6.943-6.97-11.6-.292-31.205-.093-62.414-.167-93.622C81.063,301.559,82.059,295.7,94.04,293.264Z"/><path class="cls-1" d="M111.568,268.8c12.9.128,25.16,2.829,36.348,9.529,3.6,2.154,6.485,5.1,4.405,9.582-2.161,4.658-6.126,4.148-9.943,2.083-20.571-11.131-40.985-10.1-61.4.49-4.207,2.182-7.674.906-9.424-3.59-1.469-3.774,1.357-6.231,3.864-7.718C86.511,272.6,98.457,268.6,111.568,268.8Z"/><path class="cls-1" d="M130.819,293.264c0,37.331-.01,73.28.014,109.229,0,4.7-.844,10.4,5.811,11.112,9.686,1.042,6.926-6.943,6.97-11.6.291-31.205.093-62.414.166-93.622C143.8,301.559,142.8,295.7,130.819,293.264Z"/><path class="cls-1" d="M111.771,435.447c-11.16,0-22.322.055-33.482-.039-2.822-.023-6.512.186-6.441-3.882.033-1.931,1.813-4.185,3.384-5.68,12.37-11.772,61.224-11.858,74.182-.312,2.233,1.991,4.693,3.988,3.469,7.247-1.325,3.523-4.861,2.652-7.628,2.68-11.16.115-22.322.048-33.483.048Z"/></g><g id="copy"><path class="cls-2" d="M56.931,515.48h-5.77v14.156H39.5V487.7H56.931c10.408,0,15.7,5.888,15.7,13.977C72.633,509,67.577,515.48,56.931,515.48ZM55.8,506.2c3.51,0,4.937-1.785,4.937-4.521,0-2.8-1.427-4.579-4.937-4.579H51.161v9.1Z"/><path class="cls-2" d="M95.707,487.7c10.408,0,15.642,5.948,15.642,13.443,0,5.471-2.974,10.229-9.219,12.132l9.458,16.357H98.562l-8.328-15.464H88.985v15.464H77.328V487.7Zm-.952,9.754h-5.77V506.2h5.77c3.152,0,4.758-1.547,4.758-4.4C99.513,499.183,97.907,497.458,94.755,497.458Z"/><path class="cls-2" d="M136.742,530.053c-11.895,0-21.531-8.922-21.531-21.531s9.636-21.473,21.531-21.473c11.955,0,21.472,8.862,21.472,21.473A21.035,21.035,0,0,1,136.742,530.053Zm0-10.826c6.008,0,9.636-4.223,9.636-10.7,0-6.6-3.628-10.766-9.636-10.766-6.066,0-9.635,4.163-9.635,10.766C127.107,515,130.676,519.227,136.742,519.227Z"/><path class="cls-2" d="M179.562,487.7H191.22V515.48c0,9.635-5.591,14.573-14.394,14.573-9.219,0-15.643-5.234-15.643-15.465h11.539c.059,3.628,1.487,4.937,3.628,4.937,1.963,0,3.212-1.13,3.212-4.045Z"/><path class="cls-2" d="M225,497.042H209.834v6.84h13.383v8.863H209.834V520.3H225v9.338H198.176V487.7H225Z"/><path class="cls-2" d="M250.216,487.287c10.528,0,18.022,6.068,20.1,15.585h-12.55a8.2,8.2,0,0,0-7.732-4.878c-5.353,0-8.862,4.163-8.862,10.588,0,6.482,3.509,10.645,8.862,10.645a8.2,8.2,0,0,0,7.732-4.877h12.55c-2.081,9.516-9.575,15.584-20.1,15.584-12.609,0-20.877-8.8-20.877-21.352C229.339,496.091,237.607,487.287,250.216,487.287Z"/><path class="cls-2" d="M273.527,487.7h33.9v9.278H296.248v32.654H284.59V496.982H273.527Z"/><path class="cls-2" d="M340.554,515.48h-5.77v14.156H323.126V487.7h17.428c10.409,0,15.7,5.888,15.7,13.977C356.257,509,351.2,515.48,340.554,515.48Zm-1.131-9.278c3.511,0,4.938-1.785,4.938-4.521,0-2.8-1.427-4.579-4.938-4.579h-4.639v9.1Z"/><path class="cls-2" d="M357.859,487.7h13.323l7.375,16.178,7.375-16.178h13.145l-14.75,28.609v13.323H372.609V516.313Z"/><path class="cls-2" d="M400.321,487.7h33.9v9.278H423.043v32.654H411.385V496.982H400.321Z"/><path class="cls-2" d="M464.435,512.8H450.219v16.831H438.561V487.7h11.658v15.762h14.216V487.7h11.658v41.932H464.435Z"/><path class="cls-2" d="M482.75,487.7h11.658v41.932H482.75Z"/><path class="cls-2" d="M527.6,522.8h-14.87l-2.26,6.84H498.213L513.5,487.7h13.443l15.227,41.932H529.855Zm-7.435-22.482L515.7,513.875h8.982Z"/></g></svg>
