<?xml version="1.0"?>
<svg width="611" height="446" xmlns="http://www.w3.org/2000/svg" xmlns:svg="http://www.w3.org/2000/svg">
 <defs>
  <style>.cls-1{fill:#1a658f;}.cls-2{fill:#002169;}</style>
 </defs>
 <g class="layer">
  <title>Layer 1</title>
  <g id="art">
   <path class="cls-1" d="m561.73,113.01c-0.913,-1.428 -1.734,-2.243 -1.578,-2.537c6.512,-12.268 25.871,-23.228 18.571,-35.561c-6.194,-10.464 -26.6,-3.547 -40.658,-3.666c-54.562,-0.462 -109.13,-0.221 -163.7,-0.155c-9.413,0.011 -18.251,-1 -25.991,8.123c-67.893,80.061 -157.4,130.353 -248.245,178.613a580.864,580.864 0 0 1 -54.221,25.8c-14.445,5.849 -11.841,10.758 0.4,17.236c-10.737,4.64 -23.454,7.044 -28.47,0.9c-11.495,-14.083 -0.137,-21.956 12.54,-28.387c75.979,-38.539 148.425,-82.757 214.905,-136.271c39.528,-31.819 76.493,-66.293 103.193,-110.059c5.657,-9.273 12.543,-10.68 21.871,-10.657c70.613,0.173 141.23,0.35 211.841,-0.128c13.1,-0.089 17.153,3.527 18.514,17.381c3.476,35.346 -7.717,61.708 -38.972,79.368z" fill="black" id="svg_1"/>
   <path class="cls-1" d="m452.84,255.861c0,38.47 -0.735,76.96 0.354,115.4c0.451,15.891 -6.13,18 -19.772,18.277c-14.662,0.3 -16.992,-5.818 -16.92,-18.476q0.648,-115.4 -0.008,-230.814c-0.076,-12.886 3.169,-18.937 17.165,-19.007c14.062,-0.069 19.851,4.108 19.488,19.22c-0.925,38.446 -0.308,76.931 -0.307,115.4z" id="svg_2"/>
   <path class="cls-1" d="m470.815,129.324c20.017,3.733 26.947,12.423 26.724,30.372c-0.9,73.034 -0.209,146.088 -0.667,219.131c-0.041,6.511 5.859,18.7 -7.422,18.507c-9.634,-0.141 -19.2,-2.91 -19.044,-18.34c0.866,-82.61 0.409,-165.234 0.409,-249.67z" id="svg_3"/>
   <path class="cls-1" d="m398.468,128.743c0,85.51 -0.3,168.787 0.284,252.057c0.1,14.371 -9.878,16 -18.432,16.449c-11.245,0.6 -7.467,-10.2 -7.493,-16.274c-0.313,-74.506 0.315,-149.02 -0.588,-223.516c-0.215,-17.723 8.601,-23.906 26.229,-28.716z" id="svg_4"/>
   <path class="cls-1" d="m435.151,435.514c-22.373,-0.015 -44.747,0.075 -67.119,-0.09c-4.5,-0.033 -10.367,1.6 -12.614,-3.983c-2.564,-6.372 2.51,-10.343 6.563,-14.068c27.65,-25.413 118.04,-25.262 145.669,0.176c4.121,3.8 9.351,7.959 7.072,13.972c-2.579,6.8 -9.72,3.795 -14.851,3.872c-21.571,0.322 -43.146,0.136 -64.72,0.121z" id="svg_5"/>
   <path class="cls-1" d="m433.521,84.538c28.3,-0.832 52.075,7.858 74.564,20.9c7.031,4.076 15.185,8.453 9.28,18.42c-4.925,8.309 -11.965,12.552 -22.065,6.442c-40.755,-24.66 -81.521,-24.69 -122.147,0.538c-8.869,5.507 -15.2,1.267 -20.289,-6.024c-6.9,-9.877 0.4,-14.765 7.488,-18.8c23.212,-13.209 47.508,-23.003 73.169,-21.476z" id="svg_6"/>
   <path class="cls-1" d="m273.847,315.855c0,23.312 -0.049,46.625 0.027,69.937c0.03,9.122 0.917,17.642 -13.077,17.118c-12.133,-0.454 -12.047,-7.576 -12.038,-16.023c0.049,-49.84 0.212,-99.681 -0.136,-149.518c-0.07,-9.913 2.8,-15 13.354,-14.966c11.854,0.037 11.983,7.665 11.928,16.281c-0.165,25.723 -0.059,51.447 -0.058,77.171z" id="svg_7"/>
   <path class="cls-1" d="m234.652,316.252c0.005,24.814 -0.2,49.631 0.115,74.442c0.116,9.048 -1.567,17.152 -12.107,16.442c-9.623,-0.648 -6.019,-9.854 -6.056,-15.4c-0.315,-46.425 -0.232,-92.854 -0.11,-139.281c0.012,-4.7 -0.2,-10.138 2,-13.874c2.136,-3.626 7.184,-7.579 11.058,-7.69c6.941,-0.2 4.941,6.731 4.979,10.919c0.231,24.812 0.116,49.627 0.121,74.442z" id="svg_8"/>
   <path class="cls-1" d="m287.943,230.523c15.193,0.27 18.931,7.976 18.862,20.162c-0.27,47.956 0,95.915 -0.293,143.871c-0.028,4.589 3.311,12.642 -5.857,12.622c-8.126,-0.018 -12.858,-4.373 -12.821,-13.623c0.221,-54.196 0.109,-108.393 0.109,-163.032z" id="svg_9"/>
   <path class="cls-1" d="m260.649,435.414c-15.264,0 -30.529,0.075 -45.793,-0.053c-3.859,-0.032 -8.906,0.254 -8.809,-5.31c0.046,-2.641 2.48,-5.723 4.628,-7.768c16.918,-16.1 83.735,-16.218 101.457,-0.426c3.055,2.722 6.419,5.453 4.744,9.91c-1.811,4.819 -6.647,3.627 -10.432,3.666c-15.263,0.157 -30.529,0.065 -45.794,0.065l-0.001,-0.084z" id="svg_10"/>
   <path class="cls-1" d="m103.741,349.523c0.01,-16.834 -0.073,-33.669 0.056,-50.5c0.044,-5.752 0.482,-11.433 8.73,-11.155c7.841,0.264 8.8,5.524 8.809,11.5q0.056,50.5 0.02,101.005c0,6.346 -1.758,10.94 -9.27,11.116c-8.5,0.2 -8.243,-5.925 -8.3,-11.464c-0.158,-16.834 -0.055,-33.668 -0.045,-50.502z" id="svg_11"/>
   <path class="cls-1" d="m261.218,196.157a95.5,95.5 0 0 1 50.309,13.709c5.364,3.233 12.636,6.193 8.44,14.416c-3.633,7.12 -10.081,7.1 -16.417,3.281c-28.011,-16.894 -56.011,-17.032 -83.99,-0.065c-6.543,3.968 -12.4,3.87 -16.436,-3.024c-5.032,-8.595 2.831,-11.078 7.883,-14.328c15.256,-9.813 32.233,-13.746 50.211,-13.989z" id="svg_12"/>
   <path class="cls-1" d="m94.04,293.264c0,37.331 0.011,73.28 -0.013,109.229c0,4.7 0.844,10.4 -5.811,11.112c-9.686,1.042 -6.927,-6.943 -6.97,-11.6c-0.292,-31.205 -0.093,-62.414 -0.167,-93.622c-0.016,-6.824 0.98,-12.683 12.961,-15.119z" id="svg_13"/>
   <path class="cls-1" d="m111.568,268.8c12.9,0.128 25.16,2.829 36.348,9.529c3.6,2.154 6.485,5.1 4.405,9.582c-2.161,4.658 -6.126,4.148 -9.943,2.083c-20.571,-11.131 -40.985,-10.1 -61.4,0.49c-4.207,2.182 -7.674,0.906 -9.424,-3.59c-1.469,-3.774 1.357,-6.231 3.864,-7.718c11.093,-6.576 23.039,-10.576 36.15,-10.376z" id="svg_14"/>
   <path class="cls-1" d="m130.819,293.264c0,37.331 -0.01,73.28 0.014,109.229c0,4.7 -0.844,10.4 5.811,11.112c9.686,1.042 6.926,-6.943 6.97,-11.6c0.291,-31.205 0.093,-62.414 0.166,-93.622c0.02,-6.824 -0.98,-12.683 -12.961,-15.119z" id="svg_15"/>
   <path class="cls-1" d="m111.771,435.447c-11.16,0 -22.322,0.055 -33.482,-0.039c-2.822,-0.023 -6.512,0.186 -6.441,-3.882c0.033,-1.931 1.813,-4.185 3.384,-5.68c12.37,-11.772 61.224,-11.858 74.182,-0.312c2.233,1.991 4.693,3.988 3.469,7.247c-1.325,3.523 -4.861,2.652 -7.628,2.68c-11.16,0.115 -22.322,0.048 -33.483,0.048l-0.001,-0.062z" id="svg_16"/>
  </g>
  <g id="copy"/>
 </g>
</svg>
